:SAMPLES-PER-SECOND 30
:FULLY-SPECIFIED
:DEGREES
1
root  69.6931 40.5487 -27.4837 171.813 -87.3816 -169.112
RightUpLeg  -2.5429 -7.16028 -3.85985
RightLeg  2.01169 -6.37366 3.88276
RightFoot  -1.33441 0.0655499 -0.860412
RightToes  -1.74624e-010 0 -3.6325e-017
Spine  -0.138299 0.703594 0.282102
Spine1  1.69434 0.921877 -0.997815
HEad  -4.23232 2.20622 1.62193
LeftShoulder1  1.29573 -1.94931 -16.9605
LeftArm  -16.4464 12.5754 -0.741035
LeftForeArm  9.45615 -2.65485 -1.64977
LeftHand  -0.244104 0.0205437 5.32207
RightShoulder  0.958844 1.26868 13.118
RightArm  -20.5748 0.519748 3.98795
RightForeArm  1.527 1.95848 3.11624
RightHand  -1.67137 4.28398 -20.1355
LeftUpLeg  -2.29549 4.70775 2.66368
LeftLeg  1.97823 7.62198 -3.90578
LeftFoot  -2.316 -0.109217 1.57707
LeftToes  9.06232e-013 -1.14826e-010 3.0111e-013
2
root  69.6859 40.5487 -27.4896 172.419 -87.4299 -169.697
RightUpLeg  -2.55776 -7.18065 -3.88797
RightLeg  2.02352 -6.39015 3.88514
RightFoot  -1.35073 0.0624773 -0.812672
RightToes  -1.74624e-010 0 -3.6325e-017
Spine  -0.179253 0.65169 0.153064
Spine1  1.82229 0.841557 -0.83761
HEad  -4.48491 2.11511 1.43229
LeftShoulder1  1.24678 -1.72731 -17.0303
LeftArm  -16.5796 12.4069 -0.858726
LeftForeArm  9.537 -2.69884 -1.63229
LeftHand  -0.244104 0.0205437 5.32207
RightShoulder  0.952248 1.2704 12.9513
RightArm  -20.6122 0.540603 4.09366
RightForeArm  1.38056 1.93873 3.11412
RightHand  -1.69633 4.35897 -20.2746
LeftUpLeg  -2.29374 4.66869 2.62231
LeftLeg  1.9433 7.62118 -3.89374
LeftFoot  -2.28503 -0.110694 1.60003
LeftToes  9.06232e-013 -1.14826e-010 3.0111e-013
3
root  69.6688 40.5487 -27.5011 172.584 -87.5114 -169.854
RightUpLeg  -2.52491 -7.20667 -3.90859
RightLeg  2.01801 -6.4316 3.90284
RightFoot  -1.3778 0.0601033 -0.775787
RightToes  -1.74624e-010 0 -3.6325e-017
Spine  -0.124773 0.560347 0.0121576
Spine1  1.88061 0.716996 -0.664026
HEad  -4.79887 1.91063 1.3249
LeftShoulder1  1.16556 -1.37395 -17.0798
LeftArm  -16.7145 12.1545 -1.03568
LeftForeArm  9.78287 -2.80029 -1.63385
LeftHand  -0.244104 0.0205437 5.32207
RightShoulder  0.944123 1.24834 12.8659
RightArm  -20.6695 0.602969 4.08706
RightForeArm  1.32449 1.83496 3.10015
RightHand  -1.79586 4.84096 -20.4569
LeftUpLeg  -2.26983 4.64047 2.60327
LeftLeg  1.9219 7.57264 -3.87524
LeftFoot  -2.26699 -0.111853 1.61806
LeftToes  9.06232e-013 -1.14826e-010 3.0111e-013
4
root  69.6447 40.5487 -27.5147 171.093 -87.5858 -168.388
RightUpLeg  -2.40323 -7.21424 -3.87058
RightLeg  1.93921 -6.49425 3.96274
RightFoot  -1.37486 0.0640656 -0.837349
RightToes  -1.74624e-010 0 -3.6325e-017
Spine  0.0654642 0.498076 -0.00564272
Spine1  1.71574 0.64346 -0.626254
HEad  -5.02873 1.65201 1.43762
LeftShoulder1  1.13938 -1.27339 -17.0278
LeftArm  -16.6535 12.1358 -1.08878
LeftForeArm  10.0292 -2.88589 -1.66928
LeftHand  -0.244104 0.0205437 5.32207
RightShoulder  0.920529 1.08962 13.0571
RightArm  -20.7056 0.724709 3.91101
RightForeArm  1.39856 1.75829 3.09553
RightHand  -1.86116 5.22095 -20.4473
LeftUpLeg  -2.22467 4.67685 2.67411
LeftLeg  1.95385 7.44927 -3.85924
LeftFoot  -2.299 -0.112062 1.6213
LeftToes  9.06232e-013 -1.14826e-010 3.0111e-013
5
root  69.6231 40.5487 -27.5308 168.846 -87.6282 -166.153
RightUpLeg  -2.27504 -7.19818 -3.78889
RightLeg  1.80799 -6.5667 4.03542
RightFoot  -1.34947 0.0705211 -0.937655
RightToes  -1.74624e-010 0 -3.6325e-017
Spine  0.256317 0.49339 0.0158152
Spine1  1.49214 0.630906 -0.605945
HEad  -5.16373 1.43032 1.54503
LeftShoulder1  1.1869 -1.48046 -16.9956
LeftArm  -16.4829 12.3607 -0.979354
LeftForeArm  10.0979 -2.89591 -1.69632
LeftHand  -0.244104 0.0205437 5.32207
RightShoulder  0.872499 0.811779 13.2469
RightArm  -20.7448 0.84573 3.84206
RightForeArm  1.51655 1.76746 3.09293
RightHand  -1.824 5.11362 -20.2488
LeftUpLeg  -2.21077 4.7488 2.79305
LeftLeg  2.02104 7.31231 -3.8409
LeftFoot  -2.35039 -0.111058 1.6057
LeftToes  9.06232e-013 -1.14826e-010 3.0111e-013
6
root  69.6102 40.5487 -27.5479 167.82 -87.6422 -165.103
RightUpLeg  -2.22477 -7.18814 -3.73777
RightLeg  1.71077 -6.60753 4.08488
RightFoot  -1.35016 0.0717056 -0.95606
RightToes  -1.74624e-010 0 -3.6325e-017
Spine  0.269854 0.485756 -0.0629025
Spine1  1.5511 0.58785 -0.425009
HEad  -5.38533 1.22946 1.43355
LeftShoulder1  1.22453 -1.6044 -17.1741
LeftArm  -16.4547 12.5072 -0.853614
LeftForeArm  10.0178 -2.85153 -1.6727
LeftHand  -0.244104 0.0205437 5.32207
RightShoulder  0.832768 0.648327 13.0704
RightArm  -20.8789 0.889485 4.0717
RightForeArm  1.79198 1.72556 3.03454
RightHand  -1.79258 5.01722 -20.0893
LeftUpLeg  -2.24057 4.78892 2.8628
LeftLeg  2.07285 7.24358 -3.83166
LeftFoot  -2.38272 -0.108136 1.56171
LeftToes  9.06232e-013 -1.14826e-010 3.0111e-013
7
root  69.5985 40.5487 -27.5598 168.551 -87.6437 -165.812
RightUpLeg  -2.2205 -7.22339 -3.76734
RightLeg  1.69723 -6.56834 4.11574
RightFoot  -1.38659 0.0679908 -0.898337
RightToes  -1.74624e-010 0 -3.6325e-017
Spine  0.0613384 0.41066 -0.227508
Spine1  2.01068 0.455054 -0.122568
HEad  -5.70736 1.25135 1.12919
LeftShoulder1  1.18638 -1.37616 -17.5299
LeftArm  -16.6246 12.4035 -0.845398
LeftForeArm  9.88429 -2.78387 -1.61212
LeftHand  -0.244104 0.0205437 5.32207
RightShoulder  0.834933 0.750486 12.5981
RightArm  -21.1309 0.860293 4.44914
RightForeArm  2.30148 1.57683 2.90862
RightHand  -1.85448 5.39487 -20.0624
LeftUpLeg  -2.23966 4.77475 2.84583
LeftLeg  2.06399 7.25804 -3.83444
LeftFoot  -2.39061 -0.105577 1.52294
LeftToes  9.06232e-013 -1.14826e-010 3.0111e-013
8
root  69.579 40.5487 -27.5641 169.862 -87.6251 -167.121
RightUpLeg  -2.20701 -7.291 -3.83672
RightLeg  1.72876 -6.46149 4.14791
RightFoot  -1.42085 0.0662367 -0.871082
RightToes  -1.74624e-010 0 -3.6325e-017
Spine  -0.21958 0.31405 -0.343465
Spine1  2.54084 0.31963 0.0747025
HEad  -5.43679 2.1223 0.805065
LeftShoulder1  1.12281 -1.06504 -17.7941
LeftArm  -16.7933 12.2702 -0.906256
LeftForeArm  9.68119 -2.66017 -1.55452
LeftHand  -0.244104 0.0205437 5.32207
RightShoulder  0.862869 0.96226 12.259
RightArm  -21.3437 0.799418 4.68884
RightForeArm  2.80751 1.48872 2.80179
RightHand  -1.91831 5.80748 -19.9961
LeftUpLeg  -2.17706 4.74642 2.79644
LeftLeg  2.00355 7.31449 -3.84524
LeftFoot  -2.3838 -0.107257 1.54392
LeftToes  9.06232e-013 -1.14826e-010 3.0111e-013
